<?xml version="1.0" encoding="utf-8"?>
<!-- Generator: Adobe Illustrator 16.0.0, SVG Export Plug-In . SVG Version: 6.00 Build 0)  -->
<!DOCTYPE svg PUBLIC "-//W3C//DTD SVG 1.1//EN" "http://www.w3.org/Graphics/SVG/1.1/DTD/svg11.dtd">
<svg version="1.1" xmlns="http://www.w3.org/2000/svg" xmlns:xlink="http://www.w3.org/1999/xlink" x="0px" y="0px" width="800px"
	 height="600px" viewBox="0 0 800 600" enable-background="new 0 0 800 600" xml:space="preserve">
<g id="Layer_1">
</g>
<g id="Layer_2">
	<g>
		<polygon stroke="#000000" stroke-miterlimit="10" points="282.5,372.188 278.5,369.869 282.5,372.188 282.5,178.881 70.006,57.5 
			68.5,57.5 68.5,536.5 282.5,381.321 		"/>
		<polygon stroke="#000000" stroke-miterlimit="10" points="504.5,554.5 718.5,554.5 504.5,404.06 		"/>
		<polygon display="none" stroke="#000000" stroke-miterlimit="10" points="290.5,389.649 290.5,389.718 203.134,452.5 
			399.936,452.5 		"/>
		<polygon stroke="#000000" stroke-miterlimit="10" points="398.936,463.5 202.134,463.5 75.5,554.5 503.5,554.5 503.5,404.087 
			399.5,463.824 		"/>
		<polygon stroke="#000000" stroke-miterlimit="10" points="510.5,181.869 510.5,375.665 520.5,369.869 510.5,375.665 
			510.5,384.688 724.5,536.5 724.5,57.67 		"/>
		<polygon stroke="#000000" stroke-miterlimit="10" points="493.5,384.487 493.5,189.943 399.205,250.246 298.5,186.88 
			298.5,380.996 398.747,445 		"/>
	</g>
</g>
</svg>
